<svg id="Camada_2" data-name="Camada 2" xmlns="http://www.w3.org/2000/svg" viewBox="0 0 184.9 184.9"><defs><style>.cls-1{fill:#9c489c;}.cls-2{fill:#783578;}.cls-3{fill:#e0e0d1;}.cls-4{fill:#fff;}.cls-5{fill:#c75c5c;}.cls-6{fill:#e0995e;}.cls-7{fill:#76c2af;}.cls-8{fill:#d4d3d3;}.cls-9{fill:#4f5d73;}</style></defs><circle class="cls-1" cx="92.45" cy="92.45" r="92.45"/><path class="cls-2" d="M158.12,75.81v68.46a13.51,13.51,0,0,1-13.52,13.51H54a13.51,13.51,0,0,1-13.52-13.51V75.81Z" transform="translate(-7.55 -7.55)"/><path class="cls-3" d="M158.12,55.14V71H40.49V55.14A13.52,13.52,0,0,1,54,41.62H144.6A13.52,13.52,0,0,1,158.12,55.14Z" transform="translate(-7.55 -7.55)"/><path class="cls-4" d="M158.12,71v68.46A13.52,13.52,0,0,1,144.6,153H54a13.52,13.52,0,0,1-13.52-13.52V71Z" transform="translate(-7.55 -7.55)"/><circle class="cls-5" cx="48.9" cy="48.48" r="5.5"/><circle class="cls-6" cx="66.16" cy="48.48" r="5.5"/><circle class="cls-7" cx="83.43" cy="48.48" r="5.5"/><rect class="cls-8" x="32.94" y="63.48" width="117.62" height="5.5"/><rect class="cls-3" x="92.45" y="81.15" width="46.09" height="5.5"/><rect class="cls-3" x="92.45" y="92.45" width="46.09" height="5.5"/><rect class="cls-3" x="92.45" y="103.75" width="46.09" height="5.5"/><rect class="cls-3" x="92.45" y="115.93" width="46.09" height="5.5"/><rect class="cls-3" x="92.45" y="128.11" width="46.09" height="5.5"/><rect class="cls-9" x="46.01" y="81.15" width="34.46" height="51.83"/></svg>